<?xml version="1.0" ?><!-- Uploaded to: SVG Repo, www.svgrepo.com, Generator: SVG Repo Mixer Tools -->
<svg fill="#000000" width="800px" height="800px" viewBox="0 0 64 64" xmlns="http://www.w3.org/2000/svg"><title/><path d="M44,57H20A13,13,0,0,1,7,44V20A13,13,0,0,1,20,7H44A13,13,0,0,1,57,20V44A13,13,0,0,1,44,57ZM20,9A11,11,0,0,0,9,20V44A11,11,0,0,0,20,55H44A11,11,0,0,0,55,44V20A11,11,0,0,0,44,9Z"/><path d="M32,43.67A11.67,11.67,0,1,1,43.67,32,11.68,11.68,0,0,1,32,43.67Zm0-21.33A9.67,9.67,0,1,0,41.67,32,9.68,9.68,0,0,0,32,22.33Z"/><path d="M44.5,21A3.5,3.5,0,1,1,48,17.5,3.5,3.5,0,0,1,44.5,21Zm0-5A1.5,1.5,0,1,0,46,17.5,1.5,1.5,0,0,0,44.5,16Z"/></svg>